<svg class="marks" width="717" height="334" viewBox="0 0 717 334" version="1.1" xmlns="http://www.w3.org/2000/svg" xmlns:xlink="http://www.w3.org/1999/xlink"><defs><clipPath id="clip1"><rect x="0" y="0" width="150" height="250"></rect></clipPath><clipPath id="clip2"><rect x="0" y="0" width="150" height="250"></rect></clipPath><clipPath id="clip3"><rect x="0" y="0" width="150" height="250"></rect></clipPath><clipPath id="clip4"><rect x="0" y="0" width="150" height="250"></rect></clipPath></defs><g transform="translate(45,26)"><g class="mark-group role-frame root"><g transform="translate(0,0)"><path class="background" d="M0,0h0v0h0Z" style="fill: none;"></path><g><g class="mark-group role-row-header row_header"><g transform="translate(-1,0)"><path class="background" d="M0,0h0v250h0Z" style="fill: none;"></path><g><g class="mark-group role-axis"><g transform="translate(0.5,0.5)"><path class="background" d="M0,0h0v0h0Z" style="pointer-events: none; fill: none;"></path><g><g class="mark-rule role-axis-tick" style="pointer-events: none;"><line transform="translate(0,250)" x2="-5" y2="0" style="fill: none; stroke: #888; stroke-width: 1; opacity: 1;"></line><line transform="translate(0,225)" x2="-5" y2="0" style="fill: none; stroke: #888; stroke-width: 1; opacity: 1;"></line><line transform="translate(0,200)" x2="-5" y2="0" style="fill: none; stroke: #888; stroke-width: 1; opacity: 1;"></line><line transform="translate(0,175)" x2="-5" y2="0" style="fill: none; stroke: #888; stroke-width: 1; opacity: 1;"></line><line transform="translate(0,150)" x2="-5" y2="0" style="fill: none; stroke: #888; stroke-width: 1; opacity: 1;"></line><line transform="translate(0,125)" x2="-5" y2="0" style="fill: none; stroke: #888; stroke-width: 1; opacity: 1;"></line><line transform="translate(0,100)" x2="-5" y2="0" style="fill: none; stroke: #888; stroke-width: 1; opacity: 1;"></line><line transform="translate(0,75)" x2="-5" y2="0" style="fill: none; stroke: #888; stroke-width: 1; opacity: 1;"></line><line transform="translate(0,50)" x2="-5" y2="0" style="fill: none; stroke: #888; stroke-width: 1; opacity: 1;"></line><line transform="translate(0,25)" x2="-5" y2="0" style="fill: none; stroke: #888; stroke-width: 1; opacity: 1;"></line><line transform="translate(0,0)" x2="-5" y2="0" style="fill: none; stroke: #888; stroke-width: 1; opacity: 1;"></line></g><g class="mark-text role-axis-label" style="pointer-events: none;"><text text-anchor="end" transform="translate(-7,253)" style="font-family: sans-serif; font-size: 10px; fill: #000; opacity: 1;">0</text><text text-anchor="end" transform="translate(-7,228)" style="font-family: sans-serif; font-size: 10px; fill: #000; opacity: 1;">20</text><text text-anchor="end" transform="translate(-7,203)" style="font-family: sans-serif; font-size: 10px; fill: #000; opacity: 1;">40</text><text text-anchor="end" transform="translate(-7,178)" style="font-family: sans-serif; font-size: 10px; fill: #000; opacity: 1;">60</text><text text-anchor="end" transform="translate(-7,153)" style="font-family: sans-serif; font-size: 10px; fill: #000; opacity: 1;">80</text><text text-anchor="end" transform="translate(-7,128)" style="font-family: sans-serif; font-size: 10px; fill: #000; opacity: 1;">100</text><text text-anchor="end" transform="translate(-7,103)" style="font-family: sans-serif; font-size: 10px; fill: #000; opacity: 1;">120</text><text text-anchor="end" transform="translate(-7,78)" style="font-family: sans-serif; font-size: 10px; fill: #000; opacity: 1;">140</text><text text-anchor="end" transform="translate(-7,53)" style="font-family: sans-serif; font-size: 10px; fill: #000; opacity: 1;">160</text><text text-anchor="end" transform="translate(-7,28)" style="font-family: sans-serif; font-size: 10px; fill: #000; opacity: 1;">180</text><text text-anchor="end" transform="translate(-7,3)" style="font-family: sans-serif; font-size: 10px; fill: #000; opacity: 1;">200</text></g><g class="mark-rule role-axis-domain" style="pointer-events: none;"><line transform="translate(0,250)" x2="0" y2="-250" style="fill: none; stroke: #888; stroke-width: 1; opacity: 1;"></line></g><g class="mark-text role-axis-title" style="pointer-events: none;"><text text-anchor="middle" transform="translate(-27.6845703125,125) rotate(-90) translate(0,-2)" style="font-family: sans-serif; font-size: 11px; font-weight: bold; fill: #000; opacity: 1;">MOF_norm</text></g></g></g></g></g></g></g><g class="mark-group role-column-header column_header"><g transform="translate(0,-1)"><path class="background" d="M0,0h150v0h-150Z" style="fill: none;"></path><g><g class="mark-text role-title" style="pointer-events: none;"><text text-anchor="middle" transform="translate(75,-12)" style="font-family: sans-serif; font-size: 10px; fill: #000; opacity: 1;">exp1</text></g></g></g><g transform="translate(172,-1)"><path class="background" d="M0,0h150v0h-150Z" style="fill: none;"></path><g><g class="mark-text role-title" style="pointer-events: none;"><text text-anchor="middle" transform="translate(75,-12)" style="font-family: sans-serif; font-size: 10px; fill: #000; opacity: 1;">exp2</text></g></g></g><g transform="translate(344,-1)"><path class="background" d="M0,0h150v0h-150Z" style="fill: none;"></path><g><g class="mark-text role-title" style="pointer-events: none;"><text text-anchor="middle" transform="translate(75,-12)" style="font-family: sans-serif; font-size: 10px; fill: #000; opacity: 1;">exp3</text></g></g></g><g transform="translate(516,-1)"><path class="background" d="M0,0h150v0h-150Z" style="fill: none;"></path><g><g class="mark-text role-title" style="pointer-events: none;"><text text-anchor="middle" transform="translate(75,-12)" style="font-family: sans-serif; font-size: 10px; fill: #000; opacity: 1;">exp4</text></g></g></g></g><g class="mark-group role-column-footer column_footer"><g transform="translate(0,251)"><path class="background" d="M0,0h150v0h-150Z" style="fill: none;"></path><g><g class="mark-group role-axis"><g transform="translate(0.5,0.5)"><path class="background" d="M0,0h0v0h0Z" style="pointer-events: none; fill: none;"></path><g><g class="mark-rule role-axis-tick" style="pointer-events: none;"><line transform="translate(7,0)" x2="0" y2="5" style="fill: none; stroke: #888; stroke-width: 1; opacity: 1;"></line><line transform="translate(24,0)" x2="0" y2="5" style="fill: none; stroke: #888; stroke-width: 1; opacity: 1;"></line><line transform="translate(41,0)" x2="0" y2="5" style="fill: none; stroke: #888; stroke-width: 1; opacity: 1;"></line><line transform="translate(57,0)" x2="0" y2="5" style="fill: none; stroke: #888; stroke-width: 1; opacity: 1;"></line><line transform="translate(74,0)" x2="0" y2="5" style="fill: none; stroke: #888; stroke-width: 1; opacity: 1;"></line><line transform="translate(91,0)" x2="0" y2="5" style="fill: none; stroke: #888; stroke-width: 1; opacity: 1;"></line><line transform="translate(107,0)" x2="0" y2="5" style="fill: none; stroke: #888; stroke-width: 1; opacity: 1;"></line><line transform="translate(124,0)" x2="0" y2="5" style="fill: none; stroke: #888; stroke-width: 1; opacity: 1;"></line><line transform="translate(141,0)" x2="0" y2="5" style="fill: none; stroke: #888; stroke-width: 1; opacity: 1;"></line></g><g class="mark-text role-axis-label" style="pointer-events: none;"><text text-anchor="end" transform="translate(7.333333333333329,7) rotate(-45) translate(0,8)" style="font-family: sans-serif; font-size: 10px; fill: #000; opacity: 1;">NN_CwN</text><text text-anchor="end" transform="translate(23.999999999999996,7) rotate(-45) translate(0,8)" style="font-family: sans-serif; font-size: 10px; fill: #000; opacity: 1;">NN_HMu</text><text text-anchor="end" transform="translate(40.666666666666664,7) rotate(-45) translate(0,8)" style="font-family: sans-serif; font-size: 10px; fill: #000; opacity: 1;">NN_No</text><text text-anchor="end" transform="translate(57.33333333333333,7) rotate(-45) translate(0,8)" style="font-family: sans-serif; font-size: 10px; fill: #000; opacity: 1;">NN_RI</text><text text-anchor="end" transform="translate(74,7) rotate(-45) translate(0,8)" style="font-family: sans-serif; font-size: 10px; fill: #000; opacity: 1;">noNN_CwN</text><text text-anchor="end" transform="translate(90.66666666666667,7) rotate(-45) translate(0,8)" style="font-family: sans-serif; font-size: 10px; fill: #000; opacity: 1;">noNN_HMu</text><text text-anchor="end" transform="translate(107.33333333333333,7) rotate(-45) translate(0,8)" style="font-family: sans-serif; font-size: 10px; fill: #000; opacity: 1;">noNN_No</text><text text-anchor="end" transform="translate(124,7) rotate(-45) translate(0,8)" style="font-family: sans-serif; font-size: 10px; fill: #000; opacity: 1;">noNN_RI</text><text text-anchor="end" transform="translate(140.66666666666669,7) rotate(-45) translate(0,8)" style="font-family: sans-serif; font-size: 10px; fill: #000; opacity: 1;">noNN_Rst</text></g><g class="mark-rule role-axis-domain" style="pointer-events: none;"><line transform="translate(0,0)" x2="150" y2="0" style="fill: none; stroke: #888; stroke-width: 1; opacity: 1;"></line></g></g></g></g></g></g><g transform="translate(172,251)"><path class="background" d="M0,0h150v0h-150Z" style="fill: none;"></path><g><g class="mark-group role-axis"><g transform="translate(0.5,0.5)"><path class="background" d="M0,0h0v0h0Z" style="pointer-events: none; fill: none;"></path><g><g class="mark-rule role-axis-tick" style="pointer-events: none;"><line transform="translate(7,0)" x2="0" y2="5" style="fill: none; stroke: #888; stroke-width: 1; opacity: 1;"></line><line transform="translate(24,0)" x2="0" y2="5" style="fill: none; stroke: #888; stroke-width: 1; opacity: 1;"></line><line transform="translate(41,0)" x2="0" y2="5" style="fill: none; stroke: #888; stroke-width: 1; opacity: 1;"></line><line transform="translate(57,0)" x2="0" y2="5" style="fill: none; stroke: #888; stroke-width: 1; opacity: 1;"></line><line transform="translate(74,0)" x2="0" y2="5" style="fill: none; stroke: #888; stroke-width: 1; opacity: 1;"></line><line transform="translate(91,0)" x2="0" y2="5" style="fill: none; stroke: #888; stroke-width: 1; opacity: 1;"></line><line transform="translate(107,0)" x2="0" y2="5" style="fill: none; stroke: #888; stroke-width: 1; opacity: 1;"></line><line transform="translate(124,0)" x2="0" y2="5" style="fill: none; stroke: #888; stroke-width: 1; opacity: 1;"></line><line transform="translate(141,0)" x2="0" y2="5" style="fill: none; stroke: #888; stroke-width: 1; opacity: 1;"></line></g><g class="mark-text role-axis-label" style="pointer-events: none;"><text text-anchor="end" transform="translate(7.333333333333329,7) rotate(-45) translate(0,8)" style="font-family: sans-serif; font-size: 10px; fill: #000; opacity: 1;">NN_CwN</text><text text-anchor="end" transform="translate(23.999999999999996,7) rotate(-45) translate(0,8)" style="font-family: sans-serif; font-size: 10px; fill: #000; opacity: 1;">NN_HMu</text><text text-anchor="end" transform="translate(40.666666666666664,7) rotate(-45) translate(0,8)" style="font-family: sans-serif; font-size: 10px; fill: #000; opacity: 1;">NN_No</text><text text-anchor="end" transform="translate(57.33333333333333,7) rotate(-45) translate(0,8)" style="font-family: sans-serif; font-size: 10px; fill: #000; opacity: 1;">NN_RI</text><text text-anchor="end" transform="translate(74,7) rotate(-45) translate(0,8)" style="font-family: sans-serif; font-size: 10px; fill: #000; opacity: 1;">noNN_CwN</text><text text-anchor="end" transform="translate(90.66666666666667,7) rotate(-45) translate(0,8)" style="font-family: sans-serif; font-size: 10px; fill: #000; opacity: 1;">noNN_HMu</text><text text-anchor="end" transform="translate(107.33333333333333,7) rotate(-45) translate(0,8)" style="font-family: sans-serif; font-size: 10px; fill: #000; opacity: 1;">noNN_No</text><text text-anchor="end" transform="translate(124,7) rotate(-45) translate(0,8)" style="font-family: sans-serif; font-size: 10px; fill: #000; opacity: 1;">noNN_RI</text><text text-anchor="end" transform="translate(140.66666666666669,7) rotate(-45) translate(0,8)" style="font-family: sans-serif; font-size: 10px; fill: #000; opacity: 1;">noNN_Rst</text></g><g class="mark-rule role-axis-domain" style="pointer-events: none;"><line transform="translate(0,0)" x2="150" y2="0" style="fill: none; stroke: #888; stroke-width: 1; opacity: 1;"></line></g></g></g></g></g></g><g transform="translate(344,251)"><path class="background" d="M0,0h150v0h-150Z" style="fill: none;"></path><g><g class="mark-group role-axis"><g transform="translate(0.5,0.5)"><path class="background" d="M0,0h0v0h0Z" style="pointer-events: none; fill: none;"></path><g><g class="mark-rule role-axis-tick" style="pointer-events: none;"><line transform="translate(7,0)" x2="0" y2="5" style="fill: none; stroke: #888; stroke-width: 1; opacity: 1;"></line><line transform="translate(24,0)" x2="0" y2="5" style="fill: none; stroke: #888; stroke-width: 1; opacity: 1;"></line><line transform="translate(41,0)" x2="0" y2="5" style="fill: none; stroke: #888; stroke-width: 1; opacity: 1;"></line><line transform="translate(57,0)" x2="0" y2="5" style="fill: none; stroke: #888; stroke-width: 1; opacity: 1;"></line><line transform="translate(74,0)" x2="0" y2="5" style="fill: none; stroke: #888; stroke-width: 1; opacity: 1;"></line><line transform="translate(91,0)" x2="0" y2="5" style="fill: none; stroke: #888; stroke-width: 1; opacity: 1;"></line><line transform="translate(107,0)" x2="0" y2="5" style="fill: none; stroke: #888; stroke-width: 1; opacity: 1;"></line><line transform="translate(124,0)" x2="0" y2="5" style="fill: none; stroke: #888; stroke-width: 1; opacity: 1;"></line><line transform="translate(141,0)" x2="0" y2="5" style="fill: none; stroke: #888; stroke-width: 1; opacity: 1;"></line></g><g class="mark-text role-axis-label" style="pointer-events: none;"><text text-anchor="end" transform="translate(7.333333333333329,7) rotate(-45) translate(0,8)" style="font-family: sans-serif; font-size: 10px; fill: #000; opacity: 1;">NN_CwN</text><text text-anchor="end" transform="translate(23.999999999999996,7) rotate(-45) translate(0,8)" style="font-family: sans-serif; font-size: 10px; fill: #000; opacity: 1;">NN_HMu</text><text text-anchor="end" transform="translate(40.666666666666664,7) rotate(-45) translate(0,8)" style="font-family: sans-serif; font-size: 10px; fill: #000; opacity: 1;">NN_No</text><text text-anchor="end" transform="translate(57.33333333333333,7) rotate(-45) translate(0,8)" style="font-family: sans-serif; font-size: 10px; fill: #000; opacity: 1;">NN_RI</text><text text-anchor="end" transform="translate(74,7) rotate(-45) translate(0,8)" style="font-family: sans-serif; font-size: 10px; fill: #000; opacity: 1;">noNN_CwN</text><text text-anchor="end" transform="translate(90.66666666666667,7) rotate(-45) translate(0,8)" style="font-family: sans-serif; font-size: 10px; fill: #000; opacity: 1;">noNN_HMu</text><text text-anchor="end" transform="translate(107.33333333333333,7) rotate(-45) translate(0,8)" style="font-family: sans-serif; font-size: 10px; fill: #000; opacity: 1;">noNN_No</text><text text-anchor="end" transform="translate(124,7) rotate(-45) translate(0,8)" style="font-family: sans-serif; font-size: 10px; fill: #000; opacity: 1;">noNN_RI</text><text text-anchor="end" transform="translate(140.66666666666669,7) rotate(-45) translate(0,8)" style="font-family: sans-serif; font-size: 10px; fill: #000; opacity: 1;">noNN_Rst</text></g><g class="mark-rule role-axis-domain" style="pointer-events: none;"><line transform="translate(0,0)" x2="150" y2="0" style="fill: none; stroke: #888; stroke-width: 1; opacity: 1;"></line></g></g></g></g></g></g><g transform="translate(516,251)"><path class="background" d="M0,0h150v0h-150Z" style="fill: none;"></path><g><g class="mark-group role-axis"><g transform="translate(0.5,0.5)"><path class="background" d="M0,0h0v0h0Z" style="pointer-events: none; fill: none;"></path><g><g class="mark-rule role-axis-tick" style="pointer-events: none;"><line transform="translate(7,0)" x2="0" y2="5" style="fill: none; stroke: #888; stroke-width: 1; opacity: 1;"></line><line transform="translate(24,0)" x2="0" y2="5" style="fill: none; stroke: #888; stroke-width: 1; opacity: 1;"></line><line transform="translate(41,0)" x2="0" y2="5" style="fill: none; stroke: #888; stroke-width: 1; opacity: 1;"></line><line transform="translate(57,0)" x2="0" y2="5" style="fill: none; stroke: #888; stroke-width: 1; opacity: 1;"></line><line transform="translate(74,0)" x2="0" y2="5" style="fill: none; stroke: #888; stroke-width: 1; opacity: 1;"></line><line transform="translate(91,0)" x2="0" y2="5" style="fill: none; stroke: #888; stroke-width: 1; opacity: 1;"></line><line transform="translate(107,0)" x2="0" y2="5" style="fill: none; stroke: #888; stroke-width: 1; opacity: 1;"></line><line transform="translate(124,0)" x2="0" y2="5" style="fill: none; stroke: #888; stroke-width: 1; opacity: 1;"></line><line transform="translate(141,0)" x2="0" y2="5" style="fill: none; stroke: #888; stroke-width: 1; opacity: 1;"></line></g><g class="mark-text role-axis-label" style="pointer-events: none;"><text text-anchor="end" transform="translate(7.333333333333329,7) rotate(-45) translate(0,8)" style="font-family: sans-serif; font-size: 10px; fill: #000; opacity: 1;">NN_CwN</text><text text-anchor="end" transform="translate(23.999999999999996,7) rotate(-45) translate(0,8)" style="font-family: sans-serif; font-size: 10px; fill: #000; opacity: 1;">NN_HMu</text><text text-anchor="end" transform="translate(40.666666666666664,7) rotate(-45) translate(0,8)" style="font-family: sans-serif; font-size: 10px; fill: #000; opacity: 1;">NN_No</text><text text-anchor="end" transform="translate(57.33333333333333,7) rotate(-45) translate(0,8)" style="font-family: sans-serif; font-size: 10px; fill: #000; opacity: 1;">NN_RI</text><text text-anchor="end" transform="translate(74,7) rotate(-45) translate(0,8)" style="font-family: sans-serif; font-size: 10px; fill: #000; opacity: 1;">noNN_CwN</text><text text-anchor="end" transform="translate(90.66666666666667,7) rotate(-45) translate(0,8)" style="font-family: sans-serif; font-size: 10px; fill: #000; opacity: 1;">noNN_HMu</text><text text-anchor="end" transform="translate(107.33333333333333,7) rotate(-45) translate(0,8)" style="font-family: sans-serif; font-size: 10px; fill: #000; opacity: 1;">noNN_No</text><text text-anchor="end" transform="translate(124,7) rotate(-45) translate(0,8)" style="font-family: sans-serif; font-size: 10px; fill: #000; opacity: 1;">noNN_RI</text><text text-anchor="end" transform="translate(140.66666666666669,7) rotate(-45) translate(0,8)" style="font-family: sans-serif; font-size: 10px; fill: #000; opacity: 1;">noNN_Rst</text></g><g class="mark-rule role-axis-domain" style="pointer-events: none;"><line transform="translate(0,0)" x2="150" y2="0" style="fill: none; stroke: #888; stroke-width: 1; opacity: 1;"></line></g></g></g></g></g></g></g><g class="mark-group role-scope cell"><g transform="translate(0,0)"><path class="background" d="M0.5,0.5h150v250h-150Z" style="fill: none; stroke: #ddd;"></path><g><g class="mark-group role-axis"><g transform="translate(0.5,0.5)"><path class="background" d="M0,0h0v0h0Z" style="pointer-events: none; fill: none;"></path><g><g class="mark-rule role-axis-grid" style="pointer-events: none;"><line transform="translate(0,250)" x2="150" y2="0" style="fill: none; stroke: #ddd; stroke-width: 1; opacity: 1;"></line><line transform="translate(0,225)" x2="150" y2="0" style="fill: none; stroke: #ddd; stroke-width: 1; opacity: 1;"></line><line transform="translate(0,200)" x2="150" y2="0" style="fill: none; stroke: #ddd; stroke-width: 1; opacity: 1;"></line><line transform="translate(0,175)" x2="150" y2="0" style="fill: none; stroke: #ddd; stroke-width: 1; opacity: 1;"></line><line transform="translate(0,150)" x2="150" y2="0" style="fill: none; stroke: #ddd; stroke-width: 1; opacity: 1;"></line><line transform="translate(0,125)" x2="150" y2="0" style="fill: none; stroke: #ddd; stroke-width: 1; opacity: 1;"></line><line transform="translate(0,100)" x2="150" y2="0" style="fill: none; stroke: #ddd; stroke-width: 1; opacity: 1;"></line><line transform="translate(0,75)" x2="150" y2="0" style="fill: none; stroke: #ddd; stroke-width: 1; opacity: 1;"></line><line transform="translate(0,50)" x2="150" y2="0" style="fill: none; stroke: #ddd; stroke-width: 1; opacity: 1;"></line><line transform="translate(0,25)" x2="150" y2="0" style="fill: none; stroke: #ddd; stroke-width: 1; opacity: 1;"></line><line transform="translate(0,0)" x2="150" y2="0" style="fill: none; stroke: #ddd; stroke-width: 1; opacity: 1;"></line></g></g></g></g><g class="mark-rect role-mark child_marks" clip-path="url(#clip1)"><path d="M0.8333333333333286,141.13250425555606h15.000000000000002v8.818550205582653h-15.000000000000002Z" style="fill: #4c78a8;"></path><path d="M17.499999999999996,241.09592240559311h15.000000000000002v2.357882380199385h-15.000000000000002Z" style="fill: #4c78a8;"></path><path d="M34.166666666666664,215.1179830788045h15.000000000000002v17.518124046098222h-15.000000000000002Z" style="fill: #4c78a8;"></path><path d="M50.83333333333333,242.43867245018788h15.000000000000002v1.9665929965956082h-15.000000000000002Z" style="fill: #4c78a8;"></path><path d="M67.5,47.05736760893157h15.000000000000002v8.164211815224036h-15.000000000000002Z" style="fill: #4c78a8;"></path><path d="M84.16666666666667,239.24565862732516h15.000000000000002v2.468678475858667h-15.000000000000002Z" style="fill: #4c78a8;"></path><path d="M100.83333333333333,-421.36199477239234h15.000000000000002v25.210506554929225h-15.000000000000002Z" style="fill: #4c78a8;"></path><path d="M117.5,243.00127845444024h15.000000000000002v1.738850020271741h-15.000000000000002Z" style="fill: #4c78a8;"></path><path d="M134.16666666666669,234.87477649871215h15.000000000000002v3.912480433824271h-15.000000000000002Z" style="fill: #4c78a8;"></path><path d="M0.8333333333333286,149.9510544611387h15.000000000000002v54.191986049055714h-15.000000000000002Z" style="fill: #f58518;"></path><path d="M17.499999999999996,243.4538047857925h15.000000000000002v3.2764642474998595h-15.000000000000002Z" style="fill: #f58518;"></path><path d="M34.166666666666664,232.63610712490274h15.000000000000002v8.709352673021044h-15.000000000000002Z" style="fill: #f58518;"></path><path d="M50.83333333333333,244.4052654467835h15.000000000000002v2.846666087951718h-15.000000000000002Z" style="fill: #f58518;"></path><path d="M67.5,55.22157942415561h15.000000000000002v106.12781248824601h-15.000000000000002Z" style="fill: #f58518;"></path><path d="M84.16666666666667,241.71433710318382h15.000000000000002v4.495436383374567h-15.000000000000002Z" style="fill: #f58518;"></path><path d="M100.83333333333333,-396.1514882174631h15.000000000000002v338.3933598259354h-15.000000000000002Z" style="fill: #f58518;"></path><path d="M117.5,244.74012847471198h15.000000000000002v2.708610222894521h-15.000000000000002Z" style="fill: #f58518;"></path><path d="M134.16666666666669,238.78725693253642h15.000000000000002v5.526994284687106h-15.000000000000002Z" style="fill: #f58518;"></path><path d="M0.8333333333333286,204.14304051019442h15.000000000000002v45.856959489805575h-15.000000000000002Z" style="fill: #e45756;"></path><path d="M17.499999999999996,246.73026903329236h15.000000000000002v3.269730966707641h-15.000000000000002Z" style="fill: #e45756;"></path><path d="M34.166666666666664,241.34545979792378h15.000000000000002v8.65454020207622h-15.000000000000002Z" style="fill: #e45756;"></path><path d="M50.83333333333333,247.2519315347352h15.000000000000002v2.7480684652647938h-15.000000000000002Z" style="fill: #e45756;"></path><path d="M67.5,161.34939191240161h15.000000000000002v88.65060808759839h-15.000000000000002Z" style="fill: #e45756;"></path><path d="M84.16666666666667,246.2097734865584h15.000000000000002v3.7902265134416098h-15.000000000000002Z" style="fill: #e45756;"></path><path d="M100.83333333333333,-57.75812839152769h15.000000000000002v307.7581283915277h-15.000000000000002Z" style="fill: #e45756;"></path><path d="M117.5,247.4487386976065h15.000000000000002v2.551261302393499h-15.000000000000002Z" style="fill: #e45756;"></path><path d="M134.16666666666669,244.31425121722353h15.000000000000002v5.685748782776471h-15.000000000000002Z" style="fill: #e45756;"></path></g></g></g><g transform="translate(172,0)"><path class="background" d="M0.5,0.5h150v250h-150Z" style="fill: none; stroke: #ddd;"></path><g><g class="mark-group role-axis"><g transform="translate(0.5,0.5)"><path class="background" d="M0,0h0v0h0Z" style="pointer-events: none; fill: none;"></path><g><g class="mark-rule role-axis-grid" style="pointer-events: none;"><line transform="translate(0,250)" x2="150" y2="0" style="fill: none; stroke: #ddd; stroke-width: 1; opacity: 1;"></line><line transform="translate(0,225)" x2="150" y2="0" style="fill: none; stroke: #ddd; stroke-width: 1; opacity: 1;"></line><line transform="translate(0,200)" x2="150" y2="0" style="fill: none; stroke: #ddd; stroke-width: 1; opacity: 1;"></line><line transform="translate(0,175)" x2="150" y2="0" style="fill: none; stroke: #ddd; stroke-width: 1; opacity: 1;"></line><line transform="translate(0,150)" x2="150" y2="0" style="fill: none; stroke: #ddd; stroke-width: 1; opacity: 1;"></line><line transform="translate(0,125)" x2="150" y2="0" style="fill: none; stroke: #ddd; stroke-width: 1; opacity: 1;"></line><line transform="translate(0,100)" x2="150" y2="0" style="fill: none; stroke: #ddd; stroke-width: 1; opacity: 1;"></line><line transform="translate(0,75)" x2="150" y2="0" style="fill: none; stroke: #ddd; stroke-width: 1; opacity: 1;"></line><line transform="translate(0,50)" x2="150" y2="0" style="fill: none; stroke: #ddd; stroke-width: 1; opacity: 1;"></line><line transform="translate(0,25)" x2="150" y2="0" style="fill: none; stroke: #ddd; stroke-width: 1; opacity: 1;"></line><line transform="translate(0,0)" x2="150" y2="0" style="fill: none; stroke: #ddd; stroke-width: 1; opacity: 1;"></line></g></g></g></g><g class="mark-rect role-mark child_marks" clip-path="url(#clip2)"><path d="M0.8333333333333286,112.3417194584801h15.000000000000002v2.4893808160432798h-15.000000000000002Z" style="fill: #4c78a8;"></path><path d="M17.499999999999996,221.6535267719831h15.000000000000002v1.7654434962081211h-15.000000000000002Z" style="fill: #4c78a8;"></path><path d="M34.166666666666664,242.5557136437848h15.000000000000002v1.3854413846207763h-15.000000000000002Z" style="fill: #4c78a8;"></path><path d="M50.83333333333333,234.83713324169938h15.000000000000002v1.3616897059172004h-15.000000000000002Z" style="fill: #4c78a8;"></path><path d="M67.5,-593.9127209032267h15.000000000000002v7.734641119387106h-15.000000000000002Z" style="fill: #4c78a8;"></path><path d="M84.16666666666667,226.68089556782144h15.000000000000002v1.4647055344862565h-15.000000000000002Z" style="fill: #4c78a8;"></path><path d="M100.83333333333333,129.11327003662834h15.000000000000002v2.1454961540809734h-15.000000000000002Z" style="fill: #4c78a8;"></path><path d="M117.5,238.03657459665968h15.000000000000002v1.2689685729560836h-15.000000000000002Z" style="fill: #4c78a8;"></path><path d="M134.16666666666669,17.657555914282653h15.000000000000002v6.251312875063547h-15.000000000000002Z" style="fill: #4c78a8;"></path><path d="M0.8333333333333286,114.83110027452338h15.000000000000002v63.38537682740261h-15.000000000000002Z" style="fill: #f58518;"></path><path d="M17.499999999999996,223.41897026819123h15.000000000000002v15.687325998955231h-15.000000000000002Z" style="fill: #f58518;"></path><path d="M34.166666666666664,243.94115502840557h15.000000000000002v3.0013535429817466h-15.000000000000002Z" style="fill: #f58518;"></path><path d="M50.83333333333333,236.19882294761658h15.000000000000002v7.859260439363567h-15.000000000000002Z" style="fill: #f58518;"></path><path d="M67.5,-586.1780797838396h15.000000000000002v440.3517243838034h-15.000000000000002Z" style="fill: #f58518;"></path><path d="M84.16666666666667,228.1456011023077h15.000000000000002v13.083401504014432h-15.000000000000002Z" style="fill: #f58518;"></path><path d="M100.83333333333333,131.2587661907093h15.000000000000002v16.270128253021653h-15.000000000000002Z" style="fill: #f58518;"></path><path d="M117.5,239.30554316961576h15.000000000000002v6.186496620892143h-15.000000000000002Z" style="fill: #f58518;"></path><path d="M134.16666666666669,23.9088687893462h15.000000000000002v150.56528585617139h-15.000000000000002Z" style="fill: #f58518;"></path><path d="M0.8333333333333286,178.216477101926h15.000000000000002v71.78352289807401h-15.000000000000002Z" style="fill: #e45756;"></path><path d="M17.499999999999996,239.10629626714646h15.000000000000002v10.893703732853538h-15.000000000000002Z" style="fill: #e45756;"></path><path d="M34.166666666666664,246.94250857138732h15.000000000000002v3.0574914286126784h-15.000000000000002Z" style="fill: #e45756;"></path><path d="M50.83333333333333,244.05808338698014h15.000000000000002v5.941916613019856h-15.000000000000002Z" style="fill: #e45756;"></path><path d="M67.5,-145.82635540003622h15.000000000000002v395.8263554000362h-15.000000000000002Z" style="fill: #e45756;"></path><path d="M84.16666666666667,241.22900260632213h15.000000000000002v8.770997393677874h-15.000000000000002Z" style="fill: #e45756;"></path><path d="M100.83333333333333,147.52889444373096h15.000000000000002v102.47110555626904h-15.000000000000002Z" style="fill: #e45756;"></path><path d="M117.5,245.4920397905079h15.000000000000002v4.507960209492097h-15.000000000000002Z" style="fill: #e45756;"></path><path d="M134.16666666666669,174.4741546455176h15.000000000000002v75.52584535448241h-15.000000000000002Z" style="fill: #e45756;"></path></g></g></g><g transform="translate(344,0)"><path class="background" d="M0.5,0.5h150v250h-150Z" style="fill: none; stroke: #ddd;"></path><g><g class="mark-group role-axis"><g transform="translate(0.5,0.5)"><path class="background" d="M0,0h0v0h0Z" style="pointer-events: none; fill: none;"></path><g><g class="mark-rule role-axis-grid" style="pointer-events: none;"><line transform="translate(0,250)" x2="150" y2="0" style="fill: none; stroke: #ddd; stroke-width: 1; opacity: 1;"></line><line transform="translate(0,225)" x2="150" y2="0" style="fill: none; stroke: #ddd; stroke-width: 1; opacity: 1;"></line><line transform="translate(0,200)" x2="150" y2="0" style="fill: none; stroke: #ddd; stroke-width: 1; opacity: 1;"></line><line transform="translate(0,175)" x2="150" y2="0" style="fill: none; stroke: #ddd; stroke-width: 1; opacity: 1;"></line><line transform="translate(0,150)" x2="150" y2="0" style="fill: none; stroke: #ddd; stroke-width: 1; opacity: 1;"></line><line transform="translate(0,125)" x2="150" y2="0" style="fill: none; stroke: #ddd; stroke-width: 1; opacity: 1;"></line><line transform="translate(0,100)" x2="150" y2="0" style="fill: none; stroke: #ddd; stroke-width: 1; opacity: 1;"></line><line transform="translate(0,75)" x2="150" y2="0" style="fill: none; stroke: #ddd; stroke-width: 1; opacity: 1;"></line><line transform="translate(0,50)" x2="150" y2="0" style="fill: none; stroke: #ddd; stroke-width: 1; opacity: 1;"></line><line transform="translate(0,25)" x2="150" y2="0" style="fill: none; stroke: #ddd; stroke-width: 1; opacity: 1;"></line><line transform="translate(0,0)" x2="150" y2="0" style="fill: none; stroke: #ddd; stroke-width: 1; opacity: 1;"></line></g></g></g></g><g class="mark-rect role-mark child_marks" clip-path="url(#clip3)"><path d="M0.8333333333333286,63.627524941341136h15.000000000000002v13.178139535421224h-15.000000000000002Z" style="fill: #4c78a8;"></path><path d="M17.499999999999996,239.70012581037736h15.000000000000002v3.7638753082933363h-15.000000000000002Z" style="fill: #4c78a8;"></path><path d="M34.166666666666664,205.62224590211275h15.000000000000002v38.98544261987814h-15.000000000000002Z" style="fill: #4c78a8;"></path><path d="M50.83333333333333,243.15462004288327h15.000000000000002v1.6782905885548587h-15.000000000000002Z" style="fill: #4c78a8;"></path><path d="M67.5,-7672.674847178569h15.000000000000002v5.071026678263479h-15.000000000000002Z" style="fill: #4c78a8;"></path><path d="M84.16666666666667,208.08890382923423h15.000000000000002v2.9102277198976196h-15.000000000000002Z" style="fill: #4c78a8;"></path><path d="M100.83333333333333,-4530.630636512125h15.000000000000002v40.71370771871989h-15.000000000000002Z" style="fill: #4c78a8;"></path><path d="M117.5,235.65127143717467h15.000000000000002v1.3723521832182541h-15.000000000000002Z" style="fill: #4c78a8;"></path><path d="M134.16666666666669,-2868.8742930162616h15.000000000000002v2.6669174511939673h-15.000000000000002Z" style="fill: #4c78a8;"></path><path d="M0.8333333333333286,76.80566447676236h15.000000000000002v86.3088243897227h-15.000000000000002Z" style="fill: #f58518;"></path><path d="M17.499999999999996,243.4640011186707h15.000000000000002v2.9780183780208063h-15.000000000000002Z" style="fill: #f58518;"></path><path d="M34.166666666666664,244.6076885219909h15.000000000000002v2.7555750233753997h-15.000000000000002Z" style="fill: #f58518;"></path><path d="M50.83333333333333,244.83291063143812h15.000000000000002v2.8166440825554275h-15.000000000000002Z" style="fill: #f58518;"></path><path d="M67.5,-7667.603820500305h15.000000000000002v7184.605667412332h-15.000000000000002Z" style="fill: #f58518;"></path><path d="M84.16666666666667,210.99913154913185h15.000000000000002v2.7397461846609303h-15.000000000000002Z" style="fill: #f58518;"></path><path d="M100.83333333333333,-4489.9169287934055h15.000000000000002v4.656111235232856h-15.000000000000002Z" style="fill: #f58518;"></path><path d="M117.5,237.02362362039293h15.000000000000002v2.80279557596657h-15.000000000000002Z" style="fill: #f58518;"></path><path d="M134.16666666666669,-2866.2073755650677h15.000000000000002v2866.9281843438707h-15.000000000000002Z" style="fill: #f58518;"></path><path d="M0.8333333333333286,163.11448886648506h15.000000000000002v86.88551113351494h-15.000000000000002Z" style="fill: #e45756;"></path><path d="M17.499999999999996,246.4420194966915h15.000000000000002v3.5579805033084995h-15.000000000000002Z" style="fill: #e45756;"></path><path d="M34.166666666666664,247.3632635453663h15.000000000000002v2.6367364546337058h-15.000000000000002Z" style="fill: #e45756;"></path><path d="M50.83333333333333,247.64955471399355h15.000000000000002v2.3504452860064475h-15.000000000000002Z" style="fill: #e45756;"></path><path d="M67.5,-482.99815308797326h15.000000000000002v732.9981530879733h-15.000000000000002Z" style="fill: #e45756;"></path><path d="M84.16666666666667,213.73887773379278h15.000000000000002v36.261122266207224h-15.000000000000002Z" style="fill: #e45756;"></path><path d="M100.83333333333333,-4485.260817558173h15.000000000000002v4735.260817558173h-15.000000000000002Z" style="fill: #e45756;"></path><path d="M117.5,239.8264191963595h15.000000000000002v10.173580803640505h-15.000000000000002Z" style="fill: #e45756;"></path><path d="M134.16666666666669,0.7208087788032174h15.000000000000002v249.27919122119678h-15.000000000000002Z" style="fill: #e45756;"></path></g></g></g><g transform="translate(516,0)"><path class="background" d="M0.5,0.5h150v250h-150Z" style="fill: none; stroke: #ddd;"></path><g><g class="mark-group role-axis"><g transform="translate(0.5,0.5)"><path class="background" d="M0,0h0v0h0Z" style="pointer-events: none; fill: none;"></path><g><g class="mark-rule role-axis-grid" style="pointer-events: none;"><line transform="translate(0,250)" x2="150" y2="0" style="fill: none; stroke: #ddd; stroke-width: 1; opacity: 1;"></line><line transform="translate(0,225)" x2="150" y2="0" style="fill: none; stroke: #ddd; stroke-width: 1; opacity: 1;"></line><line transform="translate(0,200)" x2="150" y2="0" style="fill: none; stroke: #ddd; stroke-width: 1; opacity: 1;"></line><line transform="translate(0,175)" x2="150" y2="0" style="fill: none; stroke: #ddd; stroke-width: 1; opacity: 1;"></line><line transform="translate(0,150)" x2="150" y2="0" style="fill: none; stroke: #ddd; stroke-width: 1; opacity: 1;"></line><line transform="translate(0,125)" x2="150" y2="0" style="fill: none; stroke: #ddd; stroke-width: 1; opacity: 1;"></line><line transform="translate(0,100)" x2="150" y2="0" style="fill: none; stroke: #ddd; stroke-width: 1; opacity: 1;"></line><line transform="translate(0,75)" x2="150" y2="0" style="fill: none; stroke: #ddd; stroke-width: 1; opacity: 1;"></line><line transform="translate(0,50)" x2="150" y2="0" style="fill: none; stroke: #ddd; stroke-width: 1; opacity: 1;"></line><line transform="translate(0,25)" x2="150" y2="0" style="fill: none; stroke: #ddd; stroke-width: 1; opacity: 1;"></line><line transform="translate(0,0)" x2="150" y2="0" style="fill: none; stroke: #ddd; stroke-width: 1; opacity: 1;"></line></g></g></g></g><g class="mark-rect role-mark child_marks" clip-path="url(#clip4)"><path d="M0.8333333333333286,48.96092757333594h15.000000000000002v28.46711899782119h-15.000000000000002Z" style="fill: #4c78a8;"></path><path d="M17.499999999999996,239.8049106755467h15.000000000000002v2.641738382341714h-15.000000000000002Z" style="fill: #4c78a8;"></path><path d="M34.166666666666664,165.88045498286738h15.000000000000002v12.063823433950631h-15.000000000000002Z" style="fill: #4c78a8;"></path><path d="M50.83333333333333,236.63532996410274h15.000000000000002v2.9160327671266657h-15.000000000000002Z" style="fill: #4c78a8;"></path><path d="M67.5,148.56331934829788h15.000000000000002v16.426747435147234h-15.000000000000002Z" style="fill: #4c78a8;"></path><path d="M84.16666666666667,228.07661215519948h15.000000000000002v3.252950533886036h-15.000000000000002Z" style="fill: #4c78a8;"></path><path d="M100.83333333333333,-465.3873466830162h15.000000000000002v85.71251750209933h-15.000000000000002Z" style="fill: #4c78a8;"></path><path d="M117.5,221.94327769567226h15.000000000000002v3.713049708945732h-15.000000000000002Z" style="fill: #4c78a8;"></path><path d="M134.16666666666669,239.07651012773644h15.000000000000002v2.4660241742998323h-15.000000000000002Z" style="fill: #4c78a8;"></path><path d="M0.8333333333333286,77.42804657115713h15.000000000000002v104.99506292797827h-15.000000000000002Z" style="fill: #f58518;"></path><path d="M17.499999999999996,242.4466490578884h15.000000000000002v3.5062719975851735h-15.000000000000002Z" style="fill: #f58518;"></path><path d="M34.166666666666664,177.944278416818h15.000000000000002v45.33060312494834h-15.000000000000002Z" style="fill: #f58518;"></path><path d="M50.83333333333333,239.5513627312294h15.000000000000002v5.127721300930602h-15.000000000000002Z" style="fill: #f58518;"></path><path d="M67.5,164.99006678344512h15.000000000000002v47.95565711730546h-15.000000000000002Z" style="fill: #f58518;"></path><path d="M84.16666666666667,231.32956268908552h15.000000000000002v8.33436833029836h-15.000000000000002Z" style="fill: #f58518;"></path><path d="M100.83333333333333,-379.67482918091684h15.000000000000002v387.99150945242377h-15.000000000000002Z" style="fill: #f58518;"></path><path d="M117.5,225.656327404618h15.000000000000002v12.317615005784575h-15.000000000000002Z" style="fill: #f58518;"></path><path d="M134.16666666666669,241.54253430203627h15.000000000000002v4.919244333848127h-15.000000000000002Z" style="fill: #f58518;"></path><path d="M0.8333333333333286,182.4231094991354h15.000000000000002v67.57689050086461h-15.000000000000002Z" style="fill: #e45756;"></path><path d="M17.499999999999996,245.95292105547358h15.000000000000002v4.047078944526419h-15.000000000000002Z" style="fill: #e45756;"></path><path d="M34.166666666666664,223.27488154176635h15.000000000000002v26.725118458233652h-15.000000000000002Z" style="fill: #e45756;"></path><path d="M50.83333333333333,244.67908403216h15.000000000000002v5.320915967839994h-15.000000000000002Z" style="fill: #e45756;"></path><path d="M67.5,212.94572390075058h15.000000000000002v37.05427609924942h-15.000000000000002Z" style="fill: #e45756;"></path><path d="M84.16666666666667,239.66393101938388h15.000000000000002v10.336068980616119h-15.000000000000002Z" style="fill: #e45756;"></path><path d="M100.83333333333333,8.316680271506925h15.000000000000002v241.68331972849307h-15.000000000000002Z" style="fill: #e45756;"></path><path d="M117.5,237.97394241040257h15.000000000000002v12.026057589597428h-15.000000000000002Z" style="fill: #e45756;"></path><path d="M134.16666666666669,246.4617786358844h15.000000000000002v3.5382213641156h-15.000000000000002Z" style="fill: #e45756;"></path></g></g></g></g><g class="mark-group role-legend"><g transform="translate(550,4)"><path class="background" d="M0,0h70v37h-70Z" style="pointer-events: none; fill: none;"></path><g><g class="mark-group role-legend-entry"><g transform="translate(0,0)"><path class="background" d="M0,0h0v0h0Z" style="pointer-events: none; fill: none;"></path><g><g class="mark-group role-scope"><g transform="translate(0,0)"><path class="background" d="M0,0h69.359375v11h-69.359375Z" style="pointer-events: none; fill: none; opacity: 1;"></path><g><g class="mark-symbol role-legend-symbol" style="pointer-events: none;"><path transform="translate(6,6)" d="M-5,-5h10v10h-10Z" style="fill: #4c78a8; stroke-width: 1.5; opacity: 1;"></path></g><g class="mark-text role-legend-label" style="pointer-events: none;"><text text-anchor="start" transform="translate(16,9)" style="font-family: sans-serif; font-size: 10px; fill: #000; opacity: 1;">Rastrigin</text></g></g></g><g transform="translate(0,13)"><path class="background" d="M0,0h69.359375v11h-69.359375Z" style="pointer-events: none; fill: none; opacity: 1;"></path><g><g class="mark-symbol role-legend-symbol" style="pointer-events: none;"><path transform="translate(6,6)" d="M-5,-5h10v10h-10Z" style="fill: #f58518; stroke-width: 1.5; opacity: 1;"></path></g><g class="mark-text role-legend-label" style="pointer-events: none;"><text text-anchor="start" transform="translate(16,9)" style="font-family: sans-serif; font-size: 10px; fill: #000; opacity: 1;">Rosenbrock</text></g></g></g><g transform="translate(0,26)"><path class="background" d="M0,0h69.359375v11h-69.359375Z" style="pointer-events: none; fill: none; opacity: 1;"></path><g><g class="mark-symbol role-legend-symbol" style="pointer-events: none;"><path transform="translate(6,6)" d="M-5,-5h10v10h-10Z" style="fill: #e45756; stroke-width: 1.5; opacity: 1;"></path></g><g class="mark-text role-legend-label" style="pointer-events: none;"><text text-anchor="start" transform="translate(16,9)" style="font-family: sans-serif; font-size: 10px; fill: #000; opacity: 1;">Sphere</text></g></g></g></g></g></g></g></g></g></g></g></g></g></g></svg>